<svg xmlns="http://www.w3.org/2000/svg" xmlns:xlink="http://www.w3.org/1999/xlink" width="500" zoomAndPan="magnify" viewBox="0 0 375 374.999991" height="500" preserveAspectRatio="xMidYMid meet" version="1.0"><defs><clipPath id="1b8d0e9d0e"><path d="M 45.40625 45.40625 L 329.65625 45.40625 L 329.65625 329.65625 L 45.40625 329.65625 Z M 45.40625 45.40625 " clip-rule="nonzero"/></clipPath></defs><path fill="#f9eeb6" d="M 315.128906 59.9375 L 305.285156 47.886719 L 295.441406 59.777344 L 285.195312 47.886719 L 274.539062 60.859375 L 264.832031 47.886719 L 254.179688 60.339844 L 243.816406 47.886719 L 235.011719 57.839844 L 223.34375 47.886719 L 223.34375 180.394531 L 146.648438 180.394531 L 146.648438 135.617188 C 146.648438 129.757812 141.898438 125.007812 136.042969 125.007812 L 58.492188 125.007812 C 52.636719 125.007812 47.882812 129.757812 47.882812 135.617188 L 47.882812 189.265625 C 47.882812 195.125 52.636719 199.875 58.492188 199.875 L 60.496094 199.875 L 60.496094 252.558594 C 56.238281 254.429688 53.738281 256.769531 53.738281 259.292969 L 53.738281 315.875 C 53.738281 322.113281 69.167969 327.179688 88.199219 327.179688 C 107.210938 327.179688 122.640625 322.113281 122.640625 315.875 L 122.640625 272.15625 L 223.34375 272.15625 L 223.34375 327.179688 L 236.65625 313.9375 L 247.355469 327.179688 L 258.007812 312.675781 L 268.953125 327.179688 L 279.675781 314.476562 L 290.351562 327.136719 L 299.203125 317.269531 L 308.4375 327.179688 C 308.4375 327.179688 316.320312 316.640625 316.636719 316.640625 C 316.816406 316.820312 327.179688 327.179688 327.179688 327.179688 L 327.179688 47.886719 Z M 315.128906 59.9375 " fill-opacity="1" fill-rule="nonzero"/><path fill="#93b2b8" d="M 275.261719 73.179688 C 284.902344 73.179688 292.738281 80.996094 292.738281 90.636719 C 292.738281 100.296875 284.902344 108.113281 275.261719 108.113281 C 265.621094 108.113281 257.804688 100.296875 257.804688 90.636719 C 257.804688 80.996094 265.621094 73.179688 275.261719 73.179688 Z M 275.261719 73.179688 " fill-opacity="1" fill-rule="nonzero"/><path fill="#ffc05a" d="M 136.0625 180.394531 L 114.9375 180.394531 C 114.9375 174.535156 119.667969 169.804688 125.5 169.804688 C 131.332031 169.804688 136.0625 174.535156 136.0625 180.394531 Z M 136.0625 180.394531 " fill-opacity="1" fill-rule="nonzero"/><path fill="#ffc05a" d="M 89.914062 132.640625 L 80.902344 144.578125 L 56.914062 144.578125 L 62.074219 137.957031 C 63.921875 135.570312 67.117188 134.738281 69.890625 135.910156 C 71.375 136.515625 73.066406 136.988281 74.730469 136.988281 C 79.101562 136.988281 89.28125 132.890625 89.914062 132.640625 Z M 89.914062 132.640625 " fill-opacity="1" fill-rule="nonzero"/><path fill="#2f84b9" d="M 47.882812 144.578125 L 146.648438 144.578125 L 146.648438 161.472656 L 47.882812 161.472656 Z M 47.882812 144.578125 " fill-opacity="1" fill-rule="nonzero"/><path fill="#8ecaef" d="M 146.648438 161.472656 L 146.648438 180.394531 L 136.0625 180.394531 C 136.0625 174.535156 131.332031 169.804688 125.5 169.804688 C 119.667969 169.804688 114.9375 174.535156 114.9375 180.394531 L 60.496094 180.394531 L 60.496094 199.875 L 58.492188 199.875 C 52.636719 199.875 47.882812 195.125 47.882812 189.265625 L 47.882812 161.472656 Z M 146.648438 161.472656 " fill-opacity="1" fill-rule="nonzero"/><path fill="#8ecaef" d="M 89.914062 132.640625 C 89.28125 132.890625 79.101562 136.988281 74.730469 136.988281 C 73.066406 136.988281 71.375 136.515625 69.890625 135.910156 C 67.117188 134.738281 63.921875 135.570312 62.074219 137.957031 L 56.914062 144.578125 L 47.882812 144.578125 L 47.882812 135.617188 C 47.882812 129.757812 52.636719 125.007812 58.492188 125.007812 L 136.042969 125.007812 C 141.898438 125.007812 146.648438 129.757812 146.648438 135.617188 L 146.648438 144.578125 L 80.902344 144.578125 Z M 89.914062 132.640625 " fill-opacity="1" fill-rule="nonzero"/><path fill="#349370" d="M 146.539062 197.9375 C 130.90625 197.9375 118.203125 210.621094 118.203125 226.273438 C 118.203125 241.925781 130.90625 254.609375 146.539062 254.609375 C 162.191406 254.609375 174.894531 241.925781 174.894531 226.273438 C 174.894531 210.621094 162.191406 197.9375 146.539062 197.9375 Z M 146.539062 197.9375 " fill-opacity="1" fill-rule="nonzero"/><path fill="#53b79a" d="M 223.34375 199.875 L 223.34375 252.671875 C 217.488281 252.671875 212.734375 257.425781 212.734375 263.28125 L 122.640625 263.28125 L 122.640625 259.292969 C 122.640625 253.03125 107.210938 247.964844 88.199219 247.964844 C 81.421875 247.964844 75.070312 248.617188 69.730469 249.742188 L 69.730469 199.875 C 75.609375 199.875 80.363281 195.125 80.363281 189.246094 L 212.734375 189.246094 C 212.734375 195.125 217.488281 199.875 223.34375 199.875 Z M 174.894531 226.273438 C 174.894531 210.621094 162.191406 197.9375 146.539062 197.9375 C 130.90625 197.9375 118.203125 210.621094 118.203125 226.273438 C 118.203125 241.925781 130.90625 254.609375 146.539062 254.609375 C 162.191406 254.609375 174.894531 241.925781 174.894531 226.273438 Z M 174.894531 226.273438 " fill-opacity="1" fill-rule="nonzero"/><path fill="#f9b132" d="M 122.640625 304.542969 L 122.640625 315.875 C 122.640625 322.113281 107.210938 327.179688 88.199219 327.179688 C 69.167969 327.179688 53.738281 322.113281 53.738281 315.875 L 53.738281 304.542969 C 53.738281 310.804688 69.167969 315.875 88.199219 315.875 C 107.210938 315.875 122.640625 310.804688 122.640625 304.542969 Z M 122.640625 304.542969 " fill-opacity="1" fill-rule="nonzero"/><path fill="#f9b132" d="M 122.640625 281.90625 L 122.640625 293.238281 C 122.640625 299.476562 107.210938 304.542969 88.199219 304.542969 C 69.167969 304.542969 53.738281 299.476562 53.738281 293.238281 L 53.738281 281.90625 C 53.738281 288.167969 69.167969 293.238281 88.199219 293.238281 C 107.210938 293.238281 122.640625 288.167969 122.640625 281.90625 Z M 122.640625 281.90625 " fill-opacity="1" fill-rule="nonzero"/><path fill="#f9b132" d="M 122.640625 263.28125 L 122.640625 270.601562 C 122.640625 276.839844 107.210938 281.90625 88.199219 281.90625 C 69.167969 281.90625 53.738281 276.839844 53.738281 270.601562 L 53.738281 259.292969 C 53.738281 265.53125 69.167969 270.601562 88.199219 270.601562 C 107.210938 270.601562 122.640625 265.53125 122.640625 259.292969 Z M 122.640625 263.28125 " fill-opacity="1" fill-rule="nonzero"/><path fill="#ffc05a" d="M 122.640625 293.238281 L 122.640625 304.542969 C 122.640625 310.804688 107.210938 315.875 88.199219 315.875 C 69.167969 315.875 53.738281 310.804688 53.738281 304.542969 L 53.738281 293.238281 C 53.738281 299.476562 69.167969 304.542969 88.199219 304.542969 C 107.210938 304.542969 122.640625 299.476562 122.640625 293.238281 Z M 122.640625 293.238281 " fill-opacity="1" fill-rule="nonzero"/><path fill="#ffc05a" d="M 88.199219 281.90625 C 107.210938 281.90625 122.640625 276.839844 122.640625 270.601562 L 122.640625 281.90625 C 122.640625 288.167969 107.210938 293.238281 88.199219 293.238281 C 69.167969 293.238281 53.738281 288.167969 53.738281 281.90625 L 53.738281 270.601562 C 53.738281 276.839844 69.167969 281.90625 88.199219 281.90625 Z M 88.199219 281.90625 " fill-opacity="1" fill-rule="nonzero"/><path fill="#ffc05a" d="M 122.640625 259.292969 C 122.640625 265.53125 107.210938 270.601562 88.199219 270.601562 C 69.167969 270.601562 53.738281 265.53125 53.738281 259.292969 C 53.738281 256.769531 56.238281 254.429688 60.496094 252.558594 C 63.019531 251.433594 66.148438 250.464844 69.730469 249.742188 C 75.070312 248.617188 81.421875 247.964844 88.199219 247.964844 C 107.210938 247.964844 122.640625 253.03125 122.640625 259.292969 Z M 122.640625 259.292969 " fill-opacity="1" fill-rule="nonzero"/><path fill="#349370" d="M 232.578125 248.460938 L 232.578125 272.15625 L 122.640625 272.15625 L 122.640625 263.28125 L 212.734375 263.28125 C 212.734375 257.425781 217.488281 252.671875 223.34375 252.671875 L 223.34375 199.875 C 217.488281 199.875 212.734375 195.125 212.734375 189.246094 L 80.363281 189.246094 C 80.363281 195.125 75.609375 199.875 69.730469 199.875 L 69.730469 249.742188 C 66.148438 250.464844 63.019531 251.433594 60.496094 252.558594 L 60.496094 180.394531 L 232.578125 180.394531 Z M 232.578125 248.460938 " fill-opacity="1" fill-rule="nonzero"/><g clip-path="url(#1b8d0e9d0e)"><path fill="#3a322b" d="M 328.039062 45.804688 C 327.199219 45.453125 326.230469 45.648438 325.585938 46.292969 L 315.304688 56.574219 L 307.039062 46.460938 C 306.613281 45.9375 305.976562 45.636719 305.304688 45.632812 C 305.300781 45.632812 305.296875 45.632812 305.296875 45.632812 C 304.625 45.632812 303.988281 45.933594 303.5625 46.449219 L 295.40625 56.296875 L 286.902344 46.414062 C 286.46875 45.910156 285.882812 45.667969 285.167969 45.628906 C 284.503906 45.636719 283.875 45.941406 283.453125 46.457031 L 274.632812 57.210938 L 266.632812 46.535156 C 266.222656 45.988281 265.585938 45.65625 264.902344 45.632812 C 264.226562 45.605469 263.5625 45.902344 263.117188 46.421875 L 254.210938 56.84375 L 245.539062 46.441406 C 245.117188 45.9375 244.496094 45.640625 243.839844 45.632812 C 243.1875 45.613281 242.554688 45.902344 242.117188 46.390625 L 234.78125 54.6875 L 224.816406 46.171875 C 224.148438 45.597656 223.207031 45.46875 222.410156 45.839844 C 221.613281 46.207031 221.101562 47.003906 221.101562 47.882812 L 221.101562 178.128906 L 148.898438 178.128906 L 148.898438 135.605469 C 148.898438 128.519531 143.132812 122.753906 136.046875 122.753906 L 58.484375 122.753906 C 51.398438 122.753906 45.628906 128.519531 45.628906 135.605469 L 45.628906 189.273438 C 45.628906 196.285156 51.269531 201.988281 58.25 202.113281 L 58.25 251.101562 C 54.070312 253.222656 51.488281 255.957031 51.488281 259.285156 L 51.488281 315.863281 C 51.488281 324.773438 69.953125 329.433594 88.191406 329.433594 C 106.429688 329.433594 124.894531 324.773438 124.894531 315.863281 L 124.894531 274.40625 L 221.101562 274.40625 L 221.101562 327.179688 C 221.101562 328.089844 221.648438 328.910156 222.488281 329.257812 C 222.765625 329.375 223.058594 329.433594 223.351562 329.433594 C 223.9375 329.433594 224.511719 329.203125 224.941406 328.777344 L 236.476562 317.304688 L 245.609375 328.597656 C 246.046875 329.140625 246.738281 329.488281 247.414062 329.433594 C 248.109375 329.417969 248.761719 329.078125 249.175781 328.511719 L 258.023438 316.449219 L 267.148438 328.539062 C 267.5625 329.089844 268.203125 329.417969 268.886719 329.433594 C 269.574219 329.480469 270.230469 329.160156 270.671875 328.636719 L 279.679688 317.96875 L 288.632812 328.597656 C 289.050781 329.097656 289.667969 329.390625 290.320312 329.402344 C 290.96875 329.398438 291.597656 329.140625 292.03125 328.652344 L 299.242188 320.613281 L 306.789062 328.722656 C 307.246094 329.210938 307.894531 329.457031 308.558594 329.433594 C 309.226562 329.398438 309.84375 329.066406 310.246094 328.535156 C 312.609375 325.367188 315.210938 321.945312 316.769531 319.957031 L 325.589844 328.777344 C 326.234375 329.421875 327.199219 329.609375 328.046875 329.265625 C 328.886719 328.917969 329.433594 328.09375 329.433594 327.183594 L 329.433594 47.890625 C 329.429688 46.972656 328.878906 46.152344 328.039062 45.804688 Z M 50.136719 146.832031 L 144.394531 146.832031 L 144.394531 159.214844 L 50.136719 159.214844 Z M 79.773438 142.328125 L 61.527344 142.328125 L 63.851562 139.339844 C 65.070312 137.777344 67.199219 137.222656 69.039062 137.980469 C 71.066406 138.820312 72.984375 139.246094 74.742188 139.246094 C 77 139.246094 80.421875 138.347656 83.539062 137.34375 Z M 58.484375 127.257812 L 136.046875 127.257812 C 140.648438 127.257812 144.394531 131.003906 144.394531 135.605469 L 144.394531 142.328125 L 85.417969 142.328125 L 91.722656 133.972656 C 92.332031 133.164062 92.328125 132.046875 91.710938 131.242188 C 91.089844 130.4375 90.019531 130.148438 89.074219 130.53125 C 86.214844 131.703125 78.070312 134.742188 74.738281 134.742188 C 73.578125 134.742188 72.242188 134.429688 70.761719 133.816406 C 67.054688 132.28125 62.753906 133.414062 60.296875 136.570312 L 55.816406 142.328125 L 50.136719 142.328125 L 50.136719 135.605469 C 50.136719 131.003906 53.882812 127.257812 58.484375 127.257812 Z M 50.136719 189.273438 L 50.136719 163.71875 L 144.394531 163.71875 L 144.394531 178.128906 L 138.113281 178.128906 C 137.042969 172.132812 131.804688 167.5625 125.503906 167.5625 C 119.203125 167.5625 113.964844 172.132812 112.894531 178.128906 L 60.503906 178.128906 C 59.261719 178.128906 58.25 179.136719 58.25 180.382812 L 58.25 197.597656 C 53.757812 197.46875 50.136719 193.796875 50.136719 189.273438 Z M 133.472656 178.128906 L 117.539062 178.128906 C 118.527344 174.640625 121.703125 172.066406 125.503906 172.066406 C 129.304688 172.066406 132.480469 174.640625 133.472656 178.128906 Z M 62.753906 182.632812 L 230.335938 182.632812 L 230.335938 269.898438 L 124.894531 269.898438 L 124.894531 265.535156 L 212.726562 265.535156 C 213.972656 265.535156 214.980469 264.527344 214.980469 263.285156 C 214.980469 258.667969 218.738281 254.910156 223.355469 254.910156 C 224.597656 254.910156 225.605469 253.902344 225.605469 252.65625 L 225.605469 199.875 C 225.605469 198.628906 224.597656 197.621094 223.355469 197.621094 C 218.738281 197.621094 214.980469 193.863281 214.980469 189.246094 C 214.980469 188.003906 213.972656 186.996094 212.726562 186.996094 L 80.363281 186.996094 C 79.121094 186.996094 78.113281 188.003906 78.113281 189.246094 C 78.113281 193.863281 74.355469 197.621094 69.738281 197.621094 C 68.496094 197.621094 67.484375 198.628906 67.484375 199.875 L 67.484375 247.921875 C 65.820312 248.316406 64.230469 248.753906 62.753906 249.25 Z M 120.390625 304.546875 C 120.390625 308.246094 107.847656 313.613281 88.195312 313.613281 C 68.539062 313.613281 55.996094 308.246094 55.996094 304.546875 L 55.996094 300.082031 C 62.574219 304.507812 75.425781 306.800781 88.195312 306.800781 C 100.960938 306.800781 113.816406 304.507812 120.390625 300.082031 Z M 124.894531 259.285156 C 124.894531 250.375 106.429688 245.714844 88.195312 245.714844 C 82.636719 245.714844 77.0625 246.15625 71.992188 247.007812 L 71.992188 201.925781 C 77.292969 200.988281 81.480469 196.800781 82.421875 191.5 L 210.671875 191.5 C 211.613281 196.800781 215.800781 200.988281 221.101562 201.925781 L 221.101562 250.605469 C 215.800781 251.542969 211.613281 255.734375 210.671875 261.03125 L 124.894531 261.03125 Z M 120.390625 270.597656 C 120.390625 274.292969 107.847656 279.660156 88.195312 279.660156 C 68.539062 279.660156 55.992188 274.292969 55.992188 270.597656 L 55.992188 266.132812 C 62.570312 270.558594 75.425781 272.851562 88.191406 272.851562 C 100.957031 272.851562 113.8125 270.558594 120.390625 266.132812 Z M 88.191406 284.167969 C 100.960938 284.167969 113.8125 281.875 120.390625 277.449219 L 120.390625 281.914062 C 120.390625 285.609375 107.847656 290.976562 88.191406 290.976562 C 68.539062 290.976562 55.992188 285.609375 55.992188 281.914062 L 55.992188 277.449219 C 62.570312 281.875 75.425781 284.167969 88.191406 284.167969 Z M 120.390625 293.230469 C 120.390625 296.929688 107.847656 302.296875 88.195312 302.296875 C 68.539062 302.296875 55.996094 296.929688 55.996094 293.230469 L 55.996094 288.765625 C 62.574219 293.191406 75.425781 295.484375 88.195312 295.484375 C 100.960938 295.484375 113.816406 293.191406 120.390625 288.765625 Z M 88.191406 250.222656 C 107.847656 250.222656 120.390625 255.589844 120.390625 259.285156 C 120.390625 262.980469 107.847656 268.347656 88.191406 268.347656 C 68.539062 268.347656 55.992188 262.976562 55.992188 259.285156 C 55.992188 255.589844 68.539062 250.222656 88.191406 250.222656 Z M 88.191406 324.929688 C 68.535156 324.929688 55.992188 319.558594 55.992188 315.863281 L 55.992188 311.398438 C 62.570312 315.824219 75.425781 318.117188 88.191406 318.117188 C 100.957031 318.117188 113.8125 315.824219 120.390625 311.398438 L 120.390625 315.863281 C 120.390625 319.558594 107.847656 324.929688 88.191406 324.929688 Z M 324.925781 321.742188 L 318.226562 315.042969 C 317.761719 314.578125 317.105469 314.347656 316.464844 314.382812 C 315.273438 314.46875 315.128906 314.480469 308.246094 323.671875 L 300.855469 315.734375 C 300.425781 315.269531 299.890625 315.058594 299.1875 315.015625 C 298.554688 315.019531 297.953125 315.292969 297.53125 315.765625 L 290.40625 323.710938 L 281.402344 313.019531 C 280.976562 312.511719 280.34375 312.21875 279.679688 312.21875 C 279.015625 312.21875 278.386719 312.511719 277.957031 313.015625 L 269.046875 323.570312 L 259.796875 311.316406 C 259.371094 310.75 258.730469 310.445312 257.984375 310.421875 C 257.273438 310.425781 256.605469 310.769531 256.183594 311.34375 L 247.273438 323.492188 L 238.410156 312.53125 C 238.007812 312.039062 237.417969 311.734375 236.78125 311.699219 C 236.144531 311.652344 235.523438 311.898438 235.070312 312.351562 L 225.609375 321.765625 L 225.609375 274.40625 L 232.589844 274.40625 C 233.835938 274.40625 234.84375 273.398438 234.84375 272.15625 L 234.84375 250.714844 L 277.625 250.714844 C 278.867188 250.714844 279.878906 249.707031 279.878906 248.464844 C 279.878906 247.21875 278.867188 246.210938 277.625 246.210938 L 234.839844 246.210938 L 234.839844 235.507812 L 277.625 235.507812 C 278.867188 235.507812 279.878906 234.5 279.878906 233.257812 C 279.878906 232.011719 278.867188 231.003906 277.625 231.003906 L 234.839844 231.003906 L 234.839844 220.296875 L 277.625 220.296875 C 278.867188 220.296875 279.878906 219.289062 279.878906 218.046875 C 279.878906 216.800781 278.867188 215.792969 277.625 215.792969 L 234.839844 215.792969 L 234.839844 205.089844 L 277.625 205.089844 C 278.867188 205.089844 279.878906 204.082031 279.878906 202.835938 C 279.878906 201.59375 278.867188 200.585938 277.625 200.585938 L 234.839844 200.585938 L 234.839844 189.882812 L 277.625 189.882812 C 278.867188 189.882812 279.878906 188.871094 279.878906 187.628906 C 279.878906 186.386719 278.867188 185.378906 277.625 185.378906 L 234.839844 185.378906 L 234.839844 180.386719 C 234.839844 179.144531 233.832031 178.136719 232.589844 178.136719 L 225.605469 178.136719 L 225.605469 52.769531 L 233.542969 59.550781 C 234.476562 60.347656 235.878906 60.253906 236.691406 59.328125 L 243.757812 51.339844 L 252.457031 61.777344 C 252.878906 62.285156 253.507812 62.582031 254.171875 62.585938 C 254.175781 62.585938 254.179688 62.585938 254.183594 62.585938 C 254.84375 62.585938 255.46875 62.296875 255.898438 61.796875 L 264.710938 51.488281 L 272.746094 62.210938 C 273.160156 62.765625 273.808594 63.097656 274.5 63.113281 C 275.207031 63.128906 275.851562 62.824219 276.289062 62.285156 L 285.234375 51.382812 L 293.730469 61.253906 C 294.164062 61.753906 294.753906 62.007812 295.460938 62.035156 C 296.125 62.03125 296.753906 61.734375 297.175781 61.222656 L 305.28125 51.429688 L 313.390625 61.351562 C 313.792969 61.84375 314.386719 62.144531 315.023438 62.175781 C 315.671875 62.210938 316.277344 61.96875 316.726562 61.519531 L 324.925781 53.320312 Z M 324.925781 321.742188 " fill-opacity="1" fill-rule="nonzero"/></g><path fill="#3a322b" d="M 275.265625 110.359375 C 286.136719 110.359375 294.980469 101.515625 294.980469 90.644531 C 294.980469 79.773438 286.136719 70.929688 275.265625 70.929688 C 264.394531 70.929688 255.550781 79.773438 255.550781 90.644531 C 255.550781 101.515625 264.394531 110.359375 275.265625 110.359375 Z M 275.265625 75.4375 C 283.652344 75.4375 290.476562 82.257812 290.476562 90.648438 C 290.476562 99.035156 283.652344 105.855469 275.265625 105.855469 C 266.878906 105.855469 260.058594 99.035156 260.058594 90.648438 C 260.058594 82.257812 266.878906 75.4375 275.265625 75.4375 Z M 275.265625 75.4375 " fill-opacity="1" fill-rule="nonzero"/><path fill="#3a322b" d="M 313.644531 128.933594 L 269.894531 128.933594 C 268.648438 128.933594 267.640625 129.945312 267.640625 131.1875 C 267.640625 132.429688 268.648438 133.441406 269.894531 133.441406 L 313.644531 133.441406 C 314.890625 133.441406 315.898438 132.429688 315.898438 131.1875 C 315.898438 129.945312 314.890625 128.933594 313.644531 128.933594 Z M 313.644531 128.933594 " fill-opacity="1" fill-rule="nonzero"/><path fill="#3a322b" d="M 236.886719 133.441406 L 258.414062 133.441406 C 259.65625 133.441406 260.664062 132.429688 260.664062 131.1875 C 260.664062 129.945312 259.65625 128.933594 258.414062 128.933594 L 236.886719 128.933594 C 235.644531 128.933594 234.632812 129.945312 234.632812 131.1875 C 234.632812 132.429688 235.640625 133.441406 236.886719 133.441406 Z M 236.886719 133.441406 " fill-opacity="1" fill-rule="nonzero"/><path fill="#3a322b" d="M 313.644531 141.519531 L 236.886719 141.519531 C 235.644531 141.519531 234.632812 142.53125 234.632812 143.773438 C 234.632812 145.015625 235.644531 146.027344 236.886719 146.027344 L 313.644531 146.027344 C 314.890625 146.027344 315.898438 145.015625 315.898438 143.773438 C 315.898438 142.53125 314.890625 141.519531 313.644531 141.519531 Z M 313.644531 141.519531 " fill-opacity="1" fill-rule="nonzero"/><path fill="#3a322b" d="M 309.472656 170.164062 L 295.257812 170.164062 C 294.015625 170.164062 293.003906 171.171875 293.003906 172.414062 C 293.003906 173.65625 294.015625 174.667969 295.257812 174.667969 L 309.472656 174.667969 C 310.714844 174.667969 311.722656 173.65625 311.722656 172.414062 C 311.722656 171.171875 310.714844 170.164062 309.472656 170.164062 Z M 309.472656 170.164062 " fill-opacity="1" fill-rule="nonzero"/><path fill="#3a322b" d="M 277.625 170.164062 L 232.589844 170.164062 C 231.347656 170.164062 230.335938 171.171875 230.335938 172.414062 C 230.335938 173.65625 231.347656 174.667969 232.589844 174.667969 L 277.625 174.667969 C 278.867188 174.667969 279.878906 173.65625 279.878906 172.414062 C 279.878906 171.171875 278.867188 170.164062 277.625 170.164062 Z M 277.625 170.164062 " fill-opacity="1" fill-rule="nonzero"/><path fill="#3a322b" d="M 309.472656 185.371094 L 295.257812 185.371094 C 294.015625 185.371094 293.003906 186.382812 293.003906 187.625 C 293.003906 188.867188 294.015625 189.878906 295.257812 189.878906 L 309.472656 189.878906 C 310.714844 189.878906 311.722656 188.867188 311.722656 187.625 C 311.722656 186.382812 310.714844 185.371094 309.472656 185.371094 Z M 309.472656 185.371094 " fill-opacity="1" fill-rule="nonzero"/><path fill="#3a322b" d="M 309.472656 200.582031 L 295.257812 200.582031 C 294.015625 200.582031 293.003906 201.589844 293.003906 202.832031 C 293.003906 204.078125 294.015625 205.085938 295.257812 205.085938 L 309.472656 205.085938 C 310.714844 205.085938 311.722656 204.078125 311.722656 202.832031 C 311.722656 201.589844 310.714844 200.582031 309.472656 200.582031 Z M 309.472656 200.582031 " fill-opacity="1" fill-rule="nonzero"/><path fill="#3a322b" d="M 309.472656 215.789062 L 295.257812 215.789062 C 294.015625 215.789062 293.003906 216.796875 293.003906 218.042969 C 293.003906 219.285156 294.015625 220.292969 295.257812 220.292969 L 309.472656 220.292969 C 310.714844 220.292969 311.722656 219.285156 311.722656 218.042969 C 311.722656 216.796875 310.714844 215.789062 309.472656 215.789062 Z M 309.472656 215.789062 " fill-opacity="1" fill-rule="nonzero"/><path fill="#3a322b" d="M 309.472656 231 L 295.257812 231 C 294.015625 231 293.003906 232.007812 293.003906 233.25 C 293.003906 234.496094 294.015625 235.503906 295.257812 235.503906 L 309.472656 235.503906 C 310.714844 235.503906 311.722656 234.496094 311.722656 233.25 C 311.722656 232.007812 310.714844 231 309.472656 231 Z M 309.472656 231 " fill-opacity="1" fill-rule="nonzero"/><path fill="#3a322b" d="M 309.472656 246.210938 L 295.257812 246.210938 C 294.015625 246.210938 293.003906 247.21875 293.003906 248.460938 C 293.003906 249.707031 294.015625 250.714844 295.257812 250.714844 L 309.472656 250.714844 C 310.714844 250.714844 311.722656 249.707031 311.722656 248.460938 C 311.722656 247.21875 310.714844 246.210938 309.472656 246.210938 Z M 309.472656 246.210938 " fill-opacity="1" fill-rule="nonzero"/><path fill="#3a322b" d="M 302.367188 268.617188 L 245.089844 268.617188 C 243.847656 268.617188 242.835938 269.628906 242.835938 270.871094 C 242.835938 272.113281 243.847656 273.125 245.089844 273.125 L 302.367188 273.125 C 303.609375 273.125 304.617188 272.113281 304.617188 270.871094 C 304.617188 269.628906 303.609375 268.617188 302.367188 268.617188 Z M 302.367188 268.617188 " fill-opacity="1" fill-rule="nonzero"/><path fill="#3a322b" d="M 302.367188 280.414062 L 252.847656 280.414062 C 251.605469 280.414062 250.597656 281.421875 250.597656 282.667969 C 250.597656 283.910156 251.605469 284.917969 252.847656 284.917969 L 302.367188 284.917969 C 303.609375 284.917969 304.617188 283.910156 304.617188 282.667969 C 304.617188 281.421875 303.609375 280.414062 302.367188 280.414062 Z M 302.367188 280.414062 " fill-opacity="1" fill-rule="nonzero"/><path fill="#3a322b" d="M 287.332031 293.835938 L 260.121094 293.835938 C 258.878906 293.835938 257.871094 294.84375 257.871094 296.089844 C 257.871094 297.332031 258.878906 298.339844 260.121094 298.339844 L 287.332031 298.339844 C 288.578125 298.339844 289.585938 297.332031 289.585938 296.089844 C 289.585938 294.84375 288.578125 293.835938 287.332031 293.835938 Z M 287.332031 293.835938 " fill-opacity="1" fill-rule="nonzero"/><path fill="#3a322b" d="M 146.546875 195.675781 C 129.679688 195.675781 115.953125 209.398438 115.953125 226.265625 C 115.953125 243.136719 129.679688 256.859375 146.546875 256.859375 C 163.414062 256.859375 177.136719 243.136719 177.136719 226.265625 C 177.136719 209.398438 163.414062 195.675781 146.546875 195.675781 Z M 146.546875 252.355469 C 132.164062 252.355469 120.460938 240.652344 120.460938 226.265625 C 120.460938 211.882812 132.164062 200.179688 146.546875 200.179688 C 160.929688 200.179688 172.632812 211.882812 172.632812 226.265625 C 172.632812 240.652344 160.929688 252.355469 146.546875 252.355469 Z M 146.546875 252.355469 " fill-opacity="1" fill-rule="nonzero"/><path fill="#3a322b" d="M 152.523438 218.039062 C 152.523438 219.28125 153.53125 220.292969 154.773438 220.292969 C 156.015625 220.292969 157.027344 219.28125 157.027344 218.039062 C 157.027344 213.035156 153.496094 208.851562 148.800781 207.816406 L 148.800781 205.582031 C 148.800781 204.335938 147.792969 203.328125 146.546875 203.328125 C 145.304688 203.328125 144.296875 204.335938 144.296875 205.582031 L 144.296875 207.816406 C 139.601562 208.855469 136.066406 213.035156 136.066406 218.039062 C 136.066406 223.042969 139.601562 227.226562 144.296875 228.261719 L 144.296875 240.019531 C 142.117188 239.128906 140.574219 236.992188 140.574219 234.492188 C 140.574219 233.25 139.5625 232.238281 138.320312 232.238281 C 137.078125 232.238281 136.066406 233.25 136.066406 234.492188 C 136.066406 239.496094 139.601562 243.679688 144.296875 244.714844 L 144.296875 246.949219 C 144.296875 248.195312 145.304688 249.203125 146.546875 249.203125 C 147.792969 249.203125 148.800781 248.195312 148.800781 246.949219 L 148.800781 244.714844 C 153.496094 243.679688 157.027344 239.496094 157.027344 234.492188 C 157.027344 229.488281 153.496094 225.304688 148.800781 224.269531 L 148.800781 212.511719 C 150.980469 213.402344 152.523438 215.542969 152.523438 218.039062 Z M 140.570312 218.039062 C 140.570312 215.542969 142.113281 213.402344 144.292969 212.511719 L 144.292969 223.566406 C 142.113281 222.675781 140.570312 220.535156 140.570312 218.039062 Z M 152.523438 234.496094 C 152.523438 236.992188 150.980469 239.128906 148.800781 240.023438 L 148.800781 228.96875 C 150.980469 229.859375 152.523438 231.996094 152.523438 234.496094 Z M 152.523438 234.496094 " fill-opacity="1" fill-rule="nonzero"/></svg>