<svg xmlns="http://www.w3.org/2000/svg" xmlns:xlink="http://www.w3.org/1999/xlink" width="500" zoomAndPan="magnify" viewBox="0 0 375 374.999991" height="500" preserveAspectRatio="xMidYMid meet" version="1.0"><defs><clipPath id="75643a4af9"><path d="M 54.140625 90 L 321.140625 90 L 321.140625 266 L 54.140625 266 Z M 54.140625 90 " clip-rule="nonzero"/></clipPath><clipPath id="0eeef1cf6d"><path d="M 54.140625 238 L 321.140625 238 L 321.140625 266 L 54.140625 266 Z M 54.140625 238 " clip-rule="nonzero"/></clipPath><clipPath id="e347616aa1"><path d="M 123 311 L 253 311 L 253 321.140625 L 123 321.140625 Z M 123 311 " clip-rule="nonzero"/></clipPath><clipPath id="0b932b4118"><path d="M 123 54.140625 L 253 54.140625 L 253 220 L 123 220 Z M 123 54.140625 " clip-rule="nonzero"/></clipPath><clipPath id="bbabf12270"><path d="M 123 54.140625 L 156 54.140625 L 156 87 L 123 87 Z M 123 54.140625 " clip-rule="nonzero"/></clipPath></defs><path fill="#60bbf0" d="M 219.863281 316.535156 L 155.414062 316.535156 L 159.9375 308.625 C 168.921875 292.898438 172.203125 274.554688 169.226562 256.691406 L 206.050781 256.691406 C 203.074219 274.554688 206.355469 292.898438 215.339844 308.625 Z M 219.863281 316.535156 " fill-opacity="1" fill-rule="nonzero"/><g clip-path="url(#75643a4af9)"><path fill="#60bbf0" d="M 312.507812 265.898438 L 62.769531 265.898438 C 58.003906 265.898438 54.140625 262.03125 54.140625 257.265625 L 54.140625 99.597656 C 54.140625 94.832031 58.003906 90.964844 62.769531 90.964844 L 312.507812 90.964844 C 317.273438 90.964844 321.140625 94.832031 321.140625 99.597656 L 321.140625 257.265625 C 321.140625 262.03125 317.273438 265.898438 312.507812 265.898438 Z M 312.507812 265.898438 " fill-opacity="1" fill-rule="nonzero"/></g><g clip-path="url(#0eeef1cf6d)"><path fill="#e65c79" d="M 312.507812 265.898438 L 62.769531 265.898438 C 58.003906 265.898438 54.140625 262.03125 54.140625 257.265625 L 54.140625 238.277344 L 321.140625 238.277344 L 321.140625 257.265625 C 321.140625 262.03125 317.273438 265.898438 312.507812 265.898438 Z M 312.507812 265.898438 " fill-opacity="1" fill-rule="nonzero"/></g><g clip-path="url(#e347616aa1)"><path fill="#b2475e" d="M 247.484375 321.140625 L 127.792969 321.140625 C 125.25 321.140625 123.191406 319.078125 123.191406 316.535156 C 123.191406 313.992188 125.25 311.933594 127.792969 311.933594 L 247.484375 311.933594 C 250.027344 311.933594 252.085938 313.992188 252.085938 316.535156 C 252.085938 319.078125 250.027344 321.140625 247.484375 321.140625 Z M 247.484375 321.140625 " fill-opacity="1" fill-rule="nonzero"/></g><g clip-path="url(#0b932b4118)"><path fill="#f2d061" d="M 155.414062 54.140625 L 123.191406 86.363281 L 123.191406 219.863281 L 252.085938 219.863281 L 252.085938 54.140625 Z M 155.414062 54.140625 " fill-opacity="1" fill-rule="nonzero"/></g><g clip-path="url(#bbabf12270)"><path fill="#d3b655" d="M 155.414062 86.363281 L 155.414062 54.140625 L 123.191406 86.363281 Z M 155.414062 86.363281 " fill-opacity="1" fill-rule="nonzero"/></g><path fill="#25495d" d="M 233.671875 77.15625 L 183.035156 77.15625 C 180.492188 77.15625 178.433594 75.09375 178.433594 72.550781 C 178.433594 70.011719 180.492188 67.949219 183.035156 67.949219 L 233.671875 67.949219 C 236.214844 67.949219 238.277344 70.011719 238.277344 72.550781 C 238.277344 75.09375 236.214844 77.15625 233.671875 77.15625 Z M 233.671875 77.15625 " fill-opacity="1" fill-rule="nonzero"/><path fill="#25495d" d="M 233.671875 95.570312 L 183.035156 95.570312 C 180.492188 95.570312 178.433594 93.507812 178.433594 90.964844 C 178.433594 88.425781 180.492188 86.363281 183.035156 86.363281 L 233.671875 86.363281 C 236.214844 86.363281 238.277344 88.425781 238.277344 90.964844 C 238.277344 93.507812 236.214844 95.570312 233.671875 95.570312 Z M 233.671875 95.570312 " fill-opacity="1" fill-rule="nonzero"/><path fill="#25495d" d="M 233.671875 113.984375 L 141.605469 113.984375 C 139.0625 113.984375 137 111.921875 137 109.378906 C 137 106.839844 139.0625 104.777344 141.605469 104.777344 L 233.671875 104.777344 C 236.214844 104.777344 238.277344 106.839844 238.277344 109.378906 C 238.277344 111.921875 236.214844 113.984375 233.671875 113.984375 Z M 233.671875 113.984375 " fill-opacity="1" fill-rule="nonzero"/><path fill="#25495d" d="M 233.671875 132.398438 L 141.605469 132.398438 C 139.0625 132.398438 137 130.335938 137 127.792969 C 137 125.25 139.0625 123.191406 141.605469 123.191406 L 233.671875 123.191406 C 236.214844 123.191406 238.277344 125.25 238.277344 127.792969 C 238.277344 130.335938 236.214844 132.398438 233.671875 132.398438 Z M 233.671875 132.398438 " fill-opacity="1" fill-rule="nonzero"/><path fill="#25495d" d="M 233.671875 150.8125 L 141.605469 150.8125 C 139.0625 150.8125 137 148.75 137 146.207031 C 137 143.664062 139.0625 141.605469 141.605469 141.605469 L 233.671875 141.605469 C 236.214844 141.605469 238.277344 143.664062 238.277344 146.207031 C 238.277344 148.75 236.214844 150.8125 233.671875 150.8125 Z M 233.671875 150.8125 " fill-opacity="1" fill-rule="nonzero"/><path fill="#25495d" d="M 224.464844 169.226562 L 141.605469 169.226562 C 139.0625 169.226562 137 167.164062 137 164.621094 C 137 162.078125 139.0625 160.019531 141.605469 160.019531 L 224.464844 160.019531 C 227.007812 160.019531 229.070312 162.078125 229.070312 164.621094 C 229.070312 167.164062 227.007812 169.226562 224.464844 169.226562 Z M 224.464844 169.226562 " fill-opacity="1" fill-rule="nonzero"/><path fill="#682a37" d="M 187.378906 210.65625 C 187.117188 210.65625 186.851562 210.632812 186.582031 210.585938 C 184.078125 210.148438 182.402344 207.765625 182.839844 205.261719 C 184.566406 195.359375 188.679688 185.96875 194.425781 178.816406 C 196.019531 176.835938 198.914062 176.519531 200.898438 178.109375 C 202.113281 179.085938 202.699219 180.550781 202.609375 181.992188 C 202.761719 182.621094 203.101562 183.710938 203.246094 184.171875 C 203.433594 184.769531 203.546875 185.128906 203.621094 185.460938 C 203.816406 186.289062 204.007812 187.121094 204.199219 187.953125 C 205.597656 185.625 207.210938 183.773438 209.089844 182.328125 C 210.421875 181.300781 212.210938 181.085938 213.75 181.765625 C 215.292969 182.445312 216.335938 183.910156 216.480469 185.585938 L 217.164062 193.582031 C 217.199219 193.949219 217.203125 194.324219 217.199219 194.710938 C 222.671875 192.753906 230.234375 190.449219 236.105469 194.105469 C 238.265625 195.449219 238.925781 198.289062 237.582031 200.449219 C 236.238281 202.605469 233.398438 203.265625 231.242188 201.921875 C 228.683594 200.328125 222.40625 202.613281 219.03125 203.839844 C 218.640625 203.980469 218.261719 204.117188 217.90625 204.246094 C 216.902344 204.605469 215.300781 205.175781 213.378906 204.820312 C 210.828125 204.34375 209.46875 202.789062 208.753906 201.015625 C 207.746094 202.96875 206.414062 204.496094 204.371094 205.035156 C 202.578125 205.507812 200.671875 205.011719 199.261719 203.710938 C 197.742188 202.300781 197.359375 200.382812 197.105469 199.109375 C 197.082031 198.984375 197.058594 198.871094 197.035156 198.773438 C 196.742188 197.613281 196.554688 196.507812 196.375 195.4375 C 196.269531 194.800781 196.164062 194.191406 196.046875 193.613281 C 194.132812 197.710938 192.71875 202.203125 191.910156 206.84375 C 191.519531 209.082031 189.574219 210.65625 187.378906 210.65625 Z M 201.609375 184.578125 C 201.605469 184.578125 201.605469 184.582031 201.605469 184.582031 C 201.605469 184.582031 201.605469 184.578125 201.609375 184.578125 Z M 201.613281 184.570312 C 201.613281 184.574219 201.609375 184.574219 201.609375 184.574219 C 201.609375 184.574219 201.613281 184.574219 201.613281 184.570312 Z M 201.613281 184.570312 " fill-opacity="1" fill-rule="nonzero"/><path fill="#25495d" d="M 178.433594 187.640625 L 141.605469 187.640625 C 139.0625 187.640625 137 185.578125 137 183.035156 C 137 180.492188 139.0625 178.433594 141.605469 178.433594 L 178.433594 178.433594 C 180.972656 178.433594 183.035156 180.492188 183.035156 183.035156 C 183.035156 185.578125 180.972656 187.640625 178.433594 187.640625 Z M 178.433594 187.640625 " fill-opacity="1" fill-rule="nonzero"/><path fill="#25495d" d="M 169.226562 206.050781 L 141.605469 206.050781 C 139.0625 206.050781 137 203.992188 137 201.449219 C 137 198.90625 139.0625 196.84375 141.605469 196.84375 L 169.226562 196.84375 C 171.765625 196.84375 173.828125 198.90625 173.828125 201.449219 C 173.828125 203.992188 171.765625 206.050781 169.226562 206.050781 Z M 169.226562 206.050781 " fill-opacity="1" fill-rule="nonzero"/><path fill="#25495d" d="M 219.863281 256.691406 L 155.414062 256.691406 C 152.871094 256.691406 150.8125 254.628906 150.8125 252.085938 C 150.8125 249.542969 152.871094 247.484375 155.414062 247.484375 L 219.863281 247.484375 C 222.40625 247.484375 224.464844 249.542969 224.464844 252.085938 C 224.464844 254.628906 222.40625 256.691406 219.863281 256.691406 Z M 219.863281 256.691406 " fill-opacity="1" fill-rule="nonzero"/><path fill="#25495d" d="M 81.757812 256.691406 L 72.550781 256.691406 C 70.011719 256.691406 67.949219 254.628906 67.949219 252.085938 C 67.949219 249.542969 70.011719 247.484375 72.550781 247.484375 L 81.757812 247.484375 C 84.300781 247.484375 86.363281 249.542969 86.363281 252.085938 C 86.363281 254.628906 84.300781 256.691406 81.757812 256.691406 Z M 81.757812 256.691406 " fill-opacity="1" fill-rule="nonzero"/><path fill="#25495d" d="M 104.777344 256.691406 L 95.570312 256.691406 C 93.027344 256.691406 90.964844 254.628906 90.964844 252.085938 C 90.964844 249.542969 93.027344 247.484375 95.570312 247.484375 L 104.777344 247.484375 C 107.320312 247.484375 109.378906 249.542969 109.378906 252.085938 C 109.378906 254.628906 107.320312 256.691406 104.777344 256.691406 Z M 104.777344 256.691406 " fill-opacity="1" fill-rule="nonzero"/><path fill="#25495d" d="M 127.792969 256.691406 L 118.585938 256.691406 C 116.042969 256.691406 113.984375 254.628906 113.984375 252.085938 C 113.984375 249.542969 116.042969 247.484375 118.585938 247.484375 L 127.792969 247.484375 C 130.335938 247.484375 132.398438 249.542969 132.398438 252.085938 C 132.398438 254.628906 130.335938 256.691406 127.792969 256.691406 Z M 127.792969 256.691406 " fill-opacity="1" fill-rule="nonzero"/><path fill="#25495d" d="M 289.402344 146.054688 C 288.542969 146.054688 287.671875 145.816406 286.894531 145.308594 C 284.765625 143.921875 284.164062 141.070312 285.550781 138.941406 L 303.90625 110.753906 C 304.457031 109.90625 304.351562 109.078125 304.238281 108.65625 C 304.125 108.238281 303.796875 107.464844 302.894531 107.011719 L 285.417969 98.207031 C 283.144531 97.0625 282.230469 94.296875 283.375 92.023438 C 284.519531 89.753906 287.289062 88.839844 289.558594 89.984375 L 307.035156 98.785156 C 310.03125 100.296875 312.253906 103.019531 313.125 106.257812 C 314 109.5 313.449219 112.96875 311.621094 115.78125 L 293.265625 143.964844 C 292.382812 145.320312 290.910156 146.054688 289.402344 146.054688 Z M 289.402344 146.054688 " fill-opacity="1" fill-rule="nonzero"/><path fill="#682a37" d="M 239.859375 188.660156 C 237.246094 180.742188 237.886719 172.113281 241.636719 164.664062 L 285.476562 77.621094 C 287.761719 73.078125 293.296875 71.25 297.839844 73.539062 C 302.382812 75.828125 304.207031 81.363281 301.921875 85.902344 L 258.082031 172.949219 C 254.332031 180.394531 247.777344 186.046875 239.859375 188.660156 Z M 239.859375 188.660156 " fill-opacity="1" fill-rule="nonzero"/><path fill="#e65c79" d="M 297.839844 73.539062 C 293.300781 71.25 287.765625 73.078125 285.476562 77.621094 L 277.195312 94.066406 L 293.640625 102.347656 L 301.921875 85.902344 C 304.210938 81.359375 302.382812 75.824219 297.839844 73.539062 Z M 297.839844 73.539062 " fill-opacity="1" fill-rule="nonzero"/></svg>